<?xml version="1.0" standalone="no"?><!DOCTYPE svg PUBLIC "-//W3C//DTD SVG 1.1//EN" "http://www.w3.org/Graphics/SVG/1.1/DTD/svg11.dtd"><svg t="1760244121079" class="icon" viewBox="0 0 1024 1024" version="1.1" xmlns="http://www.w3.org/2000/svg" p-id="11415" xmlns:xlink="http://www.w3.org/1999/xlink" width="200" height="200"><path d="M1006.344 247.168L512 494.344 17.656 247.176 512 0z" fill="#FDD7AD" p-id="11416"></path><path d="M865.104 317.792L370.76 70.624l-70.624 35.312-70.616 35.304 494.344 247.176L512 494.344 17.656 247.176v529.648L512 1024l494.344-247.176V247.176z" fill="#CBB292" p-id="11417"></path><path d="M512 494.344V1024L17.656 776.824V247.176z" fill="#CBB292" p-id="11418"></path><path d="M1006.344 247.168v529.656L512 1024V494.344z" fill="#7F6E5D" p-id="11419"></path><path d="M600.272 935.728a17.656 17.656 0 0 1-17.656-17.656v-45.656l-5.168 5.168a17.656 17.656 0 0 1-24.96-24.96l35.304-35.312a17.656 17.656 0 0 1 30.136 12.48v88.28a17.656 17.656 0 0 1-17.656 17.656z" fill="#C03A2B" p-id="11420"></path><path d="M600.272 935.728a17.656 17.656 0 0 1-17.648-17.656v-88.28a17.656 17.656 0 0 1 25.552-15.792l35.304 17.656a17.656 17.656 0 0 1-15.792 31.592l-9.76-4.88v31.136l70.624-35.312v-77.36a17.656 17.656 0 0 1 25.552-15.8l35.312 17.656a17.656 17.656 0 0 1-15.8 31.592l-9.76-4.88v59.704c0.008 6.688-3.768 12.8-9.752 15.792l-105.936 52.968a17.76 17.76 0 0 1-7.896 1.864z" fill="#C03A2B" p-id="11421"></path><path d="M706.208 882.76a17.656 17.656 0 0 1-17.656-17.656v-45.656l-5.176 5.176a17.656 17.656 0 0 1-24.96-24.968l35.304-35.312a17.656 17.656 0 0 1 30.144 12.48v88.28a17.656 17.656 0 0 1-17.656 17.656z" fill="#C03A2B" p-id="11422"></path><path d="M865.104 317.792l-70.624 35.312-494.344-247.168 70.624-35.32z" fill="#CBB292" p-id="11423"></path><path d="M794.48 353.104l-70.616 35.312L229.52 141.24l70.616-35.312z" fill="#CBB292" p-id="11424"></path><path d="M441.376 808.608a51.552 51.552 0 0 1-4.056 21.184l-21.184 47.84-23.128-65.32-34.08-96.04-27.36 11.648 21.536-86.504 85.984 62.144-29.312 6.352 24.544 64.088c4.4 11.024 6.8 22.744 7.064 34.608z" fill="#24AE5F" p-id="11425"></path><path d="M416.136 877.64c0 19.6-14.128 27.36-31.6 17.304l-63.744-37.432V771l70.096 42.024 2.12-0.704 23.12 65.32z" fill="#4C8056" p-id="11426"></path><path d="M299.256 462.208l-1.232 0.88-34.432 22.6-51.376 33.728 33.192 47.664-86.16-49.784-21.536-111.232 27.36 44.672 32.84-24.368a27.68 27.68 0 0 1 16.952-5.296c2.008 0.008 4.016 0.184 6 0.528 7.416 1.28 14.504 4.048 20.832 8.128l57.56 32.48z" fill="#24AE5F" p-id="11427"></path><path d="M363.872 598.336l-75.384-18.896-22.248-89.864-2.648-3.88 34.424-22.6 0.88 1.232a61.656 61.656 0 0 1 40.608 44.496l24.368 89.512zM174.08 606.984l-46.96 39.896h-0.184l-21.536-12.536a68.584 68.584 0 0 1-29.664-35.304 43.832 43.832 0 0 1-2.64-14.832l44.312-52.792 56.672 75.568z" fill="#4C8056" p-id="11428"></path><path d="M202.328 801.368v-36.904l-49.44-27.184a99.68 99.68 0 0 1-33.536-34.424A540.448 540.448 0 0 1 75.568 599.04h0.176a68.56 68.56 0 0 0 29.656 35.312l21.544 12.536h0.176l75.208 43.432v-37.08l53.848 105.224-53.848 42.904z" fill="#24AE5F" p-id="11429"></path><path d="M75.568 599.04a68.496 68.496 0 0 1-2.48-7.944" fill="#4C8056" p-id="11430"></path></svg>