<?xml version="1.0" standalone="no"?><!DOCTYPE svg PUBLIC "-//W3C//DTD SVG 1.1//EN" "http://www.w3.org/Graphics/SVG/1.1/DTD/svg11.dtd"><svg t="1760243357748" class="icon" viewBox="0 0 1024 1024" version="1.1" xmlns="http://www.w3.org/2000/svg" p-id="7328" xmlns:xlink="http://www.w3.org/1999/xlink" width="200" height="200"><path d="M136.64 825.504a381.336 94.504 0 1 0 762.672 0 381.336 94.504 0 1 0-762.672 0Z" fill="#B8CBCD" p-id="7329"></path><path d="M378.928 810.168c-50.448 50.44-132.216 50.44-182.656 0-50.448-50.44-50.448-132.216 0-182.656l439.52-439.528c50.44-50.44 132.216-50.44 182.656 0s50.44 132.216 0 182.656l-439.52 439.528z" fill="#F7BB83" p-id="7330"></path><path d="M287.592 872a152.16 152.16 0 0 1-108.296-44.864c-28.928-28.928-44.856-67.384-44.856-108.296s15.928-79.368 44.864-108.304l439.52-439.52A152.144 152.144 0 0 1 727.12 126.16c40.912 0 79.368 15.928 108.296 44.856 59.712 59.72 59.712 156.88 0 216.592l-439.52 439.52A152.144 152.144 0 0 1 287.592 872zM727.12 174.16a104.472 104.472 0 0 0-74.36 30.8l-439.52 439.52a104.472 104.472 0 0 0-30.8 74.36c0 28.088 10.936 54.496 30.8 74.352A104.48 104.48 0 0 0 287.592 824a104.48 104.48 0 0 0 74.36-30.808l439.52-439.52c41-41 41-107.712 0-148.72a104.448 104.448 0 0 0-74.352-30.792z" fill="#6E4123" p-id="7331"></path><path d="M196.272 370.648c-50.44-50.448-50.44-132.216 0-182.656 50.44-50.448 132.216-50.448 182.656 0l439.52 439.52c50.44 50.44 50.44 132.216 0 182.656s-132.216 50.44-182.656 0l-439.52-439.52z" fill="#F6E89A" p-id="7332"></path><path d="M727.12 872a152.144 152.144 0 0 1-108.296-44.856l-439.52-439.528c-59.72-59.72-59.72-156.88 0-216.6 28.928-28.928 67.384-44.856 108.296-44.856s79.368 15.928 108.304 44.864l439.52 439.52c59.72 59.712 59.72 156.88 0 216.592A152.136 152.136 0 0 1 727.12 872zM287.6 174.16a104.44 104.44 0 0 0-74.352 30.8c-41 41-41 107.712 0 148.72l439.52 439.52a104.504 104.504 0 0 0 74.36 30.8c28.088 0 54.496-10.936 74.36-30.8 41-41 41-107.712 0-148.712l-439.52-439.52a104.48 104.48 0 0 0-74.368-30.808z" fill="#8D4520" p-id="7333"></path><path d="M600.256 504.704c10.816 10.816 12 27.16 2.648 36.512l-52.688 52.68c-9.352 9.352-25.696 8.168-36.504-2.64l-98.976-98.96c-10.816-10.808-11.992-27.152-2.64-36.512l52.688-52.68c9.344-9.352 25.696-8.168 36.512 2.64l98.96 98.96z" fill="#FFFFFF" p-id="7334"></path><path d="M322.176 612.92m-24 0a24 24 0 1 0 48 0 24 24 0 1 0-48 0Z" fill="#FFFFFF" p-id="7335"></path><path d="M395.712 686.464m-24 0a24 24 0 1 0 48 0 24 24 0 1 0-48 0Z" fill="#FFFFFF" p-id="7336"></path><path d="M248.64 686.464m-24 0a24 24 0 1 0 48 0 24 24 0 1 0-48 0Z" fill="#FFFFFF" p-id="7337"></path><path d="M322.176 760m-24 0a24 24 0 1 0 48 0 24 24 0 1 0-48 0Z" fill="#FFFFFF" p-id="7338"></path><path d="M692.64 242.464m-24 0a24 24 0 1 0 48 0 24 24 0 1 0-48 0Z" fill="#FFFFFF" p-id="7339"></path><path d="M766.176 316m-24 0a24 24 0 1 0 48 0 24 24 0 1 0-48 0Z" fill="#FFFFFF" p-id="7340"></path><path d="M619.096 316m-24 0a24 24 0 1 0 48 0 24 24 0 1 0-48 0Z" fill="#FFFFFF" p-id="7341"></path><path d="M692.64 389.536m-24 0a24 24 0 1 0 48 0 24 24 0 1 0-48 0Z" fill="#FFFFFF" p-id="7342"></path></svg>