<?xml version="1.0" standalone="no"?><!DOCTYPE svg PUBLIC "-//W3C//DTD SVG 1.1//EN" "http://www.w3.org/Graphics/SVG/1.1/DTD/svg11.dtd"><svg t="1760244754147" class="icon" viewBox="0 0 1024 1024" version="1.1" xmlns="http://www.w3.org/2000/svg" p-id="39233" xmlns:xlink="http://www.w3.org/1999/xlink" width="200" height="200"><path d="M102.4 163.328L512.205 51.2 921.6 163.328v229.888c0 241.664-164.966 456.243-409.549 532.685C267.418 849.408 102.4 634.88 102.4 393.165V163.277z" fill="#B3DD03" p-id="39234"></path><path d="M512.205 51.2L921.6 163.328v229.888c0 241.664-164.966 456.243-409.549 532.685l-0.051-0.051V51.25l0.205-0.051z" fill="#47B232" p-id="39235"></path><path d="M681.626 331.776a25.6 25.6 0 0 1 39.168 32.666l-2.97 3.532-256 256a25.6 25.6 0 0 1-32.666 2.97l-3.532-2.97-149.35-149.35a25.6 25.6 0 0 1 32.665-39.168l3.584 2.97L443.699 569.65l237.927-237.875z" fill="#237206" p-id="39236"></path><path d="M681.626 331.776a25.6 25.6 0 0 1 39.168 32.666l-2.97 3.532-256 256a25.6 25.6 0 0 1-32.666 2.97l-3.532-2.97-149.35-149.35a25.6 25.6 0 0 1 32.665-39.168l3.584 2.97L443.699 569.65l237.927-237.875z" fill="#237206" p-id="39237"></path></svg>