<?xml version="1.0" standalone="no"?><!DOCTYPE svg PUBLIC "-//W3C//DTD SVG 1.1//EN" "http://www.w3.org/Graphics/SVG/1.1/DTD/svg11.dtd"><svg t="1760244529660" class="icon" viewBox="0 0 1024 1024" version="1.1" xmlns="http://www.w3.org/2000/svg" p-id="22425" xmlns:xlink="http://www.w3.org/1999/xlink" width="200" height="200"><path d="M829.792 17.656L670.896 97.104l-70.624-35.312L723.864 0 512 17.656 17.656 264.824v512L512 1024l494.344-247.176v-512z" fill="#59474E" p-id="22426"></path><path d="M512 512v512L17.656 776.824v-512z" fill="#CBB292" p-id="22427"></path><path d="M1006.344 264.824v512L512 1024V512z" fill="#7F6E5D" p-id="22428"></path><path d="M1006.344 264.824L512 512 335.448 264.824 829.792 17.656zM723.864 0L229.52 247.168 17.656 264.824 512 17.656z" fill="#FDD7AD" p-id="22429"></path><path d="M423.72 935.728a17.648 17.648 0 0 1-17.656-17.656v-88.28a17.656 17.656 0 0 1 30.144-12.48l35.304 35.304a17.648 17.648 0 1 1-24.96 24.968l-5.176-5.168v45.648a17.648 17.648 0 0 1-17.648 17.664zM317.792 882.76a17.648 17.648 0 0 1-17.656-17.656v-88.28a17.656 17.656 0 0 1 30.136-12.48l35.312 35.312a17.648 17.648 0 1 1-24.96 24.96l-5.176-5.168v45.656a17.648 17.648 0 0 1-17.656 17.656z" fill="#E64C3C" p-id="22430"></path><path d="M423.72 935.728c-2.736 0-5.44-0.64-7.896-1.864l-105.928-52.968a17.648 17.648 0 0 1-9.76-15.792v-59.712l-9.76 4.88a17.656 17.656 0 1 1-15.792-31.584l35.312-17.656a17.664 17.664 0 0 1 25.552 15.792v77.36l70.624 35.32V858.36l-9.76 4.88a17.656 17.656 0 1 1-15.792-31.584L415.824 814a17.664 17.664 0 0 1 25.552 15.792v88.28a17.664 17.664 0 0 1-17.648 17.656z" fill="#E64C3C" p-id="22431"></path><path d="M600.272 935.728a17.648 17.648 0 0 1-17.656-17.656v-45.656l-5.168 5.168a17.656 17.656 0 0 1-24.96-24.96l35.304-35.312a17.656 17.656 0 0 1 30.144 12.48v88.28a17.648 17.648 0 0 1-17.664 17.656z" fill="#C03A2B" p-id="22432"></path><path d="M600.272 935.728a17.664 17.664 0 0 1-17.656-17.656v-88.28A17.664 17.664 0 0 1 608.176 814l35.304 17.656a17.656 17.656 0 0 1-15.792 31.584l-9.76-4.88v31.136l70.624-35.304v-77.36a17.664 17.664 0 0 1 25.552-15.8l35.304 17.656a17.656 17.656 0 0 1-15.792 31.592l-9.76-4.88v59.704c0 6.688-3.776 12.8-9.76 15.792l-105.92 52.968a17.72 17.72 0 0 1-7.904 1.864z" fill="#C03A2B" p-id="22433"></path><path d="M706.208 882.76a17.648 17.648 0 0 1-17.656-17.656v-45.656l-5.176 5.176a17.656 17.656 0 0 1-24.96-24.968l35.304-35.312a17.656 17.656 0 0 1 30.144 12.48v88.28a17.648 17.648 0 0 1-17.656 17.656z" fill="#C03A2B" p-id="22434"></path></svg>